<?xml version="1.0" encoding="UTF-8" standalone="no"?>
<svg
   version="1.1"
   x="0px"
   y="0px"
   viewBox="0 0 100.3976 100.21632"
   xml:space="preserve"
   id="svg2"
   sodipodi:docname="noun-megaphone-5060387.svg"
   width="100.3976"
   height="100.21632"
   inkscape:version="1.3 (0e150ed6c4, 2023-07-21)"
   xmlns:inkscape="http://www.inkscape.org/namespaces/inkscape"
   xmlns:sodipodi="http://sodipodi.sourceforge.net/DTD/sodipodi-0.dtd"
   xmlns="http://www.w3.org/2000/svg"
   xmlns:svg="http://www.w3.org/2000/svg"><defs
     id="defs2" /><sodipodi:namedview
     id="namedview2"
     pagecolor="#505050"
     bordercolor="#ffffff"
     borderopacity="1"
     inkscape:showpageshadow="0"
     inkscape:pageopacity="0"
     inkscape:pagecheckerboard="1"
     inkscape:deskcolor="#505050"
     showgrid="false"
     inkscape:zoom="7.5452852"
     inkscape:cx="49.964977"
     inkscape:cy="50.29631"
     inkscape:window-width="1920"
     inkscape:window-height="1017"
     inkscape:window-x="-8"
     inkscape:window-y="-8"
     inkscape:window-maximized="1"
     inkscape:current-layer="svg2" /><path
     d="m 64.198799,38.700617 h -2 v -13.17 c 0,-1.602 -0.949,-3.046 -2.417,-3.68 -1.479,-0.639 -3.133,-0.351 -4.311,0.756 -5.557,5.235 -18.398,14.094 -31.272,14.094 h -8 c -3.309,0 -6,2.691 -6,6 v 12 c 0,3.309 2.691,6 6,6 h 6 v 12 c 0,3.309 2.691,6 6,6 3.309,0 6,-2.691 6,-6 v -10.383 c 9.112,2.796 17.175,8.617 21.273,12.477 0.762,0.718 1.724,1.092 2.71,1.092 0.535,0 1.078,-0.11 1.6,-0.336 1.468,-0.634 2.417,-2.078 2.417,-3.68 v -13.17 h 2 c 3.309,0 6,-2.691 6,-6 v -8 c 0,-3.309 -2.691,-6 -6,-6 z m -48,18 c -1.103,0 -2,-0.897 -2,-2 v -12 c 0,-1.103 0.897,-2 2,-2 h 6 v 16 z m 14,16 c 0,1.103 -0.897,2 -2,2 -1.103,0 -2,-0.897 -2,-2 v -11.916 c 1.342,0.092 2.676,0.28 4,0.538 z m -4,-15.918 v -16.164 c 13.422,-0.831 26.311,-9.727 32,-15.088 l 0.015,46.352 c -5.704,-5.372 -18.593,-14.269 -32.015,-15.1 z m 40,-4.082 c 0,1.103 -0.897,2 -2,2 h -2 v -12 h 2 c 1.103,0 2,0.897 2,2 z m 24,-4 c 0,6.501 -1.595,12.945 -4.613,18.637 -0.358,0.678 -1.052,1.063 -1.769,1.063 -0.315,0 -0.637,-0.074 -0.935,-0.233 -0.977,-0.517 -1.348,-1.728 -0.83,-2.703 2.713,-5.117 4.147,-10.913 4.147,-16.764 0,-5.851 -1.434,-11.646 -4.146,-16.764 -0.518,-0.976 -0.146,-2.187 0.83,-2.703 0.972,-0.52 2.186,-0.147 2.703,0.83 3.018,5.692 4.613,12.136 4.613,18.637 z m -8,0 c 0,5.209 -1.277,10.367 -3.693,14.918 -0.359,0.677 -1.052,1.062 -1.769,1.062 -0.316,0 -0.637,-0.075 -0.936,-0.233 -0.976,-0.519 -1.347,-1.729 -0.829,-2.704 2.112,-3.976 3.227,-8.485 3.227,-13.043 0,-4.558 -1.115,-9.067 -3.227,-13.043 -0.518,-0.976 -0.146,-2.186 0.829,-2.704 0.975,-0.518 2.186,-0.146 2.704,0.829 2.417,4.551 3.694,9.709 3.694,14.918 z"
     id="path1" /></svg>
